<svg width="24" height="24" viewBox="0 0 24 24" fill="none" xmlns="http://www.w3.org/2000/svg">
<path id="Vector" d="M22.5989 17.1151L14.4196 10.551C16.5167 8.54153 17.4737 7.0775 16.8687 4.18872C16.4497 2.18795 14.9936 0.599561 13.1585 0.143553C11.6415 -0.236091 10.0814 0.145735 8.88437 1.18866C7.68632 2.2305 7.00029 3.78508 7.00029 5.45529C7.00029 6.35967 7.67132 7.09168 8.50035 7.09168C9.32939 7.09168 10.0004 6.35967 10.0004 5.45529C10.0004 4.78764 10.2754 4.16472 10.7544 3.74798C11.2405 3.3247 11.8555 3.17525 12.4915 3.33561C13.1985 3.51125 13.7826 4.14836 13.9436 4.91964C14.2366 6.3193 14.1756 6.53422 11.0735 9.35536L1.38106 17.1326C0.516021 17.8515 0 18.9894 0 20.1752C0 22.2851 1.57307 24 3.50615 24H20.4939C22.4279 24 24 22.284 24 20.1752C24 18.9894 23.483 17.8515 22.5979 17.1162L22.5989 17.1151ZM20.4949 20.7272H3.50615C3.22713 20.7272 3.00012 20.4796 3.00012 20.1752C3.00012 20.0039 3.07513 19.8403 3.17913 19.753L12.0005 12.674L20.8009 19.7366C20.9259 19.8403 21.0009 20.005 21.0009 20.1752C21.0009 20.4796 20.7739 20.7272 20.4949 20.7272Z" fill="black"/>
</svg>
