<svg width="24" height="24" viewBox="0 0 24 24" fill="none" xmlns="http://www.w3.org/2000/svg">
<path id="Vector" d="M7.00209 0.00999583H4.00334C1.79426 0.00999583 0.00500488 1.79925 0.00500488 4.00833V7.00708C0.00500488 9.21616 1.79426 11.0054 4.00334 11.0054H7.00209C9.21117 11.0054 11.0004 9.21616 11.0004 7.00708V4.00833C11.0004 1.79925 9.21117 0.00999583 7.00209 0.00999583ZM9.00126 7.00708C9.00126 8.10662 8.10163 9.00625 7.00209 9.00625H4.00334C2.9038 9.00625 2.00417 8.10662 2.00417 7.00708V4.00833C2.00417 2.90879 2.9038 2.00916 4.00334 2.00916H7.00209C8.10163 2.00916 9.00126 2.90879 9.00126 4.00833V7.00708ZM19.9967 13.0046H16.9979C14.7888 13.0046 12.9996 14.7938 12.9996 17.0029V20.0017C12.9996 22.2107 14.7888 24 16.9979 24H19.9967C22.2058 24 23.995 22.2107 23.995 20.0017V17.0029C23.995 14.7938 22.2058 13.0046 19.9967 13.0046ZM21.9958 20.0017C21.9958 21.1012 21.0962 22.0008 19.9967 22.0008H16.9979C15.8984 22.0008 14.9988 21.1012 14.9988 20.0017V17.0029C14.9988 15.9034 15.8984 15.0037 16.9979 15.0037H19.9967C21.0962 15.0037 21.9958 15.9034 21.9958 17.0029V20.0017ZM7.00209 13.0046H4.00334C1.79426 13.0046 0.00500488 14.7938 0.00500488 17.0029V20.0017C0.00500488 22.2107 1.79426 24 4.00334 24H7.00209C9.21117 24 11.0004 22.2107 11.0004 20.0017V17.0029C11.0004 14.7938 9.21117 13.0046 7.00209 13.0046ZM9.00126 20.0017C9.00126 21.1012 8.10163 22.0008 7.00209 22.0008H4.00334C2.9038 22.0008 2.00417 21.1012 2.00417 20.0017V17.0029C2.00417 15.9034 2.9038 15.0037 4.00334 15.0037H7.00209C8.10163 15.0037 9.00126 15.9034 9.00126 17.0029V20.0017ZM17.1778 9.53603C17.5577 9.8459 18.0275 9.99583 18.4973 9.99583C18.9671 9.99583 19.4369 9.8459 19.8167 9.53603C21.3761 8.28655 23.995 5.83757 23.995 3.47855C23.995 1.55935 22.5356 0 20.7464 0C19.8967 0 19.097 0.35985 18.4973 0.939608C17.9075 0.349854 17.1079 0 16.2482 0C14.459 0 12.9996 1.55935 12.9996 3.47855C12.9996 5.82757 15.6185 8.28655 17.1778 9.53603ZM16.2482 2.00916C16.848 2.00916 17.3878 2.50895 17.5077 3.17868C17.5877 3.65848 18.0075 4.00833 18.4873 4.00833C18.9671 4.00833 19.3869 3.65848 19.4669 3.17868C19.5868 2.50895 20.1366 2.00916 20.7364 2.00916C21.4261 2.00916 21.9858 2.66889 21.9858 3.48855C21.9858 4.5481 20.6364 6.31737 18.5573 7.98667C18.5173 8.01666 18.4573 8.01666 18.4173 7.98667C16.3382 6.31737 14.9888 4.5481 14.9888 3.48855C14.9888 2.67888 15.5485 2.00916 16.2382 2.00916H16.2482Z" fill="black"/>
</svg>
